<svg xmlns="http://www.w3.org/2000/svg" viewBox="0 0 512 512"><path d="M149.3 56v80c0 13.3-10.7 24-24 24H24c-13.3 0-24-10.7-24-24V56c0-13.3 10.7-24 24-24h101.3c13.3 0 24 10.7 24 24zm181.3 240v-80c0-13.3-10.7-24-24-24H205.3c-13.3 0-24 10.7-24 24v80c0 13.3 10.7 24 24 24h101.3c13.3 0 24-10.7 24-24zm32-240v80c0 13.3 10.7 24 24 24H488c13.3 0 24-10.7 24-24V56c0-13.3-10.7-24-24-24H386.7c-13.3 0-24 10.7-24 24zm-32 80V56c0-13.3-10.7-24-24-24H205.3c-13.3 0-24 10.7-24 24v80c0 13.3 10.7 24 24 24h101.3c13.3 0 24-10.7 24-24zm-205.3 56H24c-13.3 0-24 10.7-24 24v80c0 13.3 10.7 24 24 24h101.3c13.3 0 24-10.7 24-24v-80c0-13.3-10.7-24-24-24zM0 376v80c0 13.3 10.7 24 24 24h101.3c13.3 0 24-10.7 24-24v-80c0-13.3-10.7-24-24-24H24c-13.3 0-24 10.7-24 24zm386.7-56H488c13.3 0 24-10.7 24-24v-80c0-13.3-10.7-24-24-24H386.7c-13.3 0-24 10.7-24 24v80c0 13.3 10.7 24 24 24zm0 160H488c13.3 0 24-10.7 24-24v-80c0-13.3-10.7-24-24-24H386.7c-13.3 0-24 10.7-24 24v80c0 13.3 10.7 24 24 24zM181.3 376v80c0 13.3 10.7 24 24 24h101.3c13.3 0 24-10.7 24-24v-80c0-13.3-10.7-24-24-24H205.3c-13.3 0-24 10.7-24 24z"/></svg>